<svg width="25" height="24" viewBox="0 0 25 24" fill="none" xmlns="http://www.w3.org/2000/svg">
<path d="M12.5 9C13.05 9 13.5 8.55 13.5 8V6H15.5C16.05 6 16.5 5.55 16.5 5C16.5 4.45 16.05 4 15.5 4H13.5V2C13.5 1.45 13.05 1 12.5 1C11.95 1 11.5 1.45 11.5 2V4H9.5C8.95 4 8.5 4.45 8.5 5C8.5 5.55 8.95 6 9.5 6H11.5V8C11.5 8.55 11.95 9 12.5 9ZM7.5 18C6.4 18 5.51 18.9 5.51 20C5.51 21.1 6.4 22 7.5 22C8.6 22 9.5 21.1 9.5 20C9.5 18.9 8.6 18 7.5 18ZM17.5 18C16.4 18 15.51 18.9 15.51 20C15.51 21.1 16.4 22 17.5 22C18.6 22 19.5 21.1 19.5 20C19.5 18.9 18.6 18 17.5 18ZM8.6 13H16.05C16.8 13 17.46 12.59 17.8 11.97L21.18 5.84C21.45 5.36 21.27 4.75 20.79 4.48C20.31 4.22 19.7 4.39 19.44 4.87L16.05 11H9.03L5.04 2.57C4.88 2.22 4.52 2 4.14 2H2.5C1.95 2 1.5 2.45 1.5 3C1.5 3.55 1.95 4 2.5 4H3.5L7.1 11.59L5.75 14.03C5.02 15.37 5.98 17 7.5 17H18.5C19.05 17 19.5 16.55 19.5 16C19.5 15.45 19.05 15 18.5 15H7.5L8.6 13Z" fill="white"/>
</svg>
