<svg width="32" height="32" viewBox="0 0 32 32" fill="none" xmlns="http://www.w3.org/2000/svg">
<rect x="0.1" y="0.1" width="31.8" height="31.8" rx="1.9" stroke="#686E6F" stroke-width="0.2"/>
<path d="M24.0003 17.3334H17.3337V24.0001C17.3337 24.7334 16.7337 25.3334 16.0003 25.3334C15.267 25.3334 14.667 24.7334 14.667 24.0001V17.3334H8.00033C7.26699 17.3334 6.66699 16.7334 6.66699 16.0001C6.66699 15.2667 7.26699 14.6667 8.00033 14.6667H14.667V8.00008C14.667 7.26675 15.267 6.66675 16.0003 6.66675C16.7337 6.66675 17.3337 7.26675 17.3337 8.00008V14.6667H24.0003C24.7337 14.6667 25.3337 15.2667 25.3337 16.0001C25.3337 16.7334 24.7337 17.3334 24.0003 17.3334Z" fill="#686E6F"/>
</svg>
