<svg width="100" height="20" viewBox="0 0 100 20" fill="none" xmlns="http://www.w3.org/2000/svg">
<path d="M9.99994 14.6001L13.4583 16.6918C14.0916 17.0751 14.8666 16.5085 14.6999 15.7918L13.7833 11.8585L16.8416 9.20846C17.3999 8.72513 17.0999 7.80846 16.3666 7.75013L12.3416 7.40846L10.7666 3.6918C10.4833 3.0168 9.51661 3.0168 9.23327 3.6918L7.65827 7.40013L3.63327 7.7418C2.89994 7.80013 2.59994 8.7168 3.15827 9.20013L6.21661 11.8501L5.29994 15.7835C5.13327 16.5001 5.90827 17.0668 6.54161 16.6835L9.99994 14.6001V14.6001Z" fill="#2A9D8F"/>
<path d="M29.9999 14.6001L33.4583 16.6918C34.0916 17.0751 34.8666 16.5085 34.6999 15.7918L33.7833 11.8585L36.8416 9.20846C37.3999 8.72513 37.0999 7.80846 36.3666 7.75013L32.3416 7.40846L30.7666 3.6918C30.4833 3.0168 29.5166 3.0168 29.2333 3.6918L27.6583 7.40013L23.6333 7.7418C22.8999 7.80013 22.5999 8.7168 23.1583 9.20013L26.2166 11.8501L25.2999 15.7835C25.1333 16.5001 25.9083 17.0668 26.5416 16.6835L29.9999 14.6001V14.6001Z" fill="#2A9D8F"/>
<path d="M49.9999 14.6001L53.4583 16.6918C54.0916 17.0751 54.8666 16.5085 54.6999 15.7918L53.7833 11.8585L56.8416 9.20846C57.3999 8.72513 57.0999 7.80846 56.3666 7.75013L52.3416 7.40846L50.7666 3.6918C50.4833 3.0168 49.5166 3.0168 49.2333 3.6918L47.6583 7.40013L43.6333 7.7418C42.8999 7.80013 42.5999 8.7168 43.1583 9.20013L46.2166 11.8501L45.2999 15.7835C45.1333 16.5001 45.9083 17.0668 46.5416 16.6835L49.9999 14.6001V14.6001Z" fill="#2A9D8F"/>
<path d="M69.9999 14.6001L73.4583 16.6918C74.0916 17.0751 74.8666 16.5085 74.6999 15.7918L73.7833 11.8585L76.8416 9.20846C77.3999 8.72513 77.0999 7.80846 76.3666 7.75013L72.3416 7.40846L70.7666 3.6918C70.4833 3.0168 69.5166 3.0168 69.2333 3.6918L67.6583 7.40013L63.6333 7.7418C62.8999 7.80013 62.5999 8.7168 63.1583 9.20013L66.2166 11.8501L65.2999 15.7835C65.1333 16.5001 65.9083 17.0668 66.5416 16.6835L69.9999 14.6001V14.6001Z" fill="#2A9D8F"/>
<path d="M96.3749 7.53333L92.3416 7.18333L90.7666 3.475C90.4833 2.8 89.5166 2.8 89.2333 3.475L87.6583 7.19167L83.6333 7.53333C82.8999 7.59167 82.5999 8.50833 83.1583 8.99167L86.2166 11.6417L85.2999 15.575C85.1333 16.2917 85.9083 16.8583 86.5416 16.475L89.9999 14.3917L93.4583 16.4833C94.0916 16.8667 94.8666 16.3 94.6999 15.5833L93.7833 11.6417L96.8416 8.99167C97.3999 8.50833 97.1083 7.59167 96.3749 7.53333V7.53333ZM89.9999 12.8333V5.08333L91.4249 8.45L95.0749 8.76667L92.3083 11.1667L93.1416 14.7333L89.9999 12.8333Z" fill="#2A9D8F"/>
</svg>
